<svg xmlns="http://www.w3.org/2000/svg" width="300" height="160" viewBox="0 0 300 160">
  <defs>
    <style>
      .cls-1 {
        fill: #e51616;
      }

      .cls-1, .cls-2 {
        fill-rule: evenodd;
      }

      .cls-2 {
        fill: #fff;
      }
    </style>
  </defs>
  <path class="cls-1" d="M0,129.985H300v19.958H0V129.985Z"/>
  <path class="cls-2" d="M240.872,122.478h-5.523V77.932a18.322,18.322,0,0,1,18.279-18.365H298v5.55H253.635a12.792,12.792,0,0,0-12.763,12.822h0v44.54h0Zm-6.858-44.534a19.573,19.573,0,0,1,19.527-19.617h44.453v-5.55H253.541A25.109,25.109,0,0,0,228.49,77.944v44.541h5.524V77.944ZM298,71.981v-5.55H253.653A11.48,11.48,0,0,0,242.2,77.938v5.556h23.318v-5.55H247.73a5.95,5.95,0,0,1,5.936-5.963H298ZM265.524,91.687H242.207v30.8h5.523V97.2h17.794V91.687Zm0-6.89H242.207v5.55h23.317V84.8Zm-62.3-25.223H175.7a15.954,15.954,0,0,0-15.917,15.991v5.011a9.774,9.774,0,0,0,9.751,9.8h36.291a4.237,4.237,0,0,1,4.228,4.247v5.011a10.418,10.418,0,0,1-10.394,10.441H172.13a6.874,6.874,0,0,1-6.858-6.89h-5.524a12.379,12.379,0,0,0,12.35,12.408h27.539A15.954,15.954,0,0,0,215.554,99.6V94.587a9.774,9.774,0,0,0-9.751-9.8H169.53a4.237,4.237,0,0,1-4.227-4.247V75.533A10.417,10.417,0,0,1,175.7,65.123h27.526a6.874,6.874,0,0,1,6.858,6.89H215.6a12.379,12.379,0,0,0-12.319-12.44h-0.062Zm5.492,12.408h0a5.53,5.53,0,0,0-5.517-5.543H175.721a9.105,9.105,0,0,0-9.084,9.126h0v5.011a2.924,2.924,0,0,0,2.918,2.931h36.279A11.1,11.1,0,0,1,216.907,94.63h0v5.011a17.28,17.28,0,0,1-17.239,17.313H172.111a13.7,13.7,0,0,1-13.673-13.736h-5.523a19.234,19.234,0,0,0,19.19,19.279h27.563a22.809,22.809,0,0,0,22.756-22.862v-5a16.629,16.629,0,0,0-16.59-16.667H172.167V75.564a3.575,3.575,0,0,1,3.566-3.583h32.981ZM203.24,52.7H175.677a22.809,22.809,0,0,0-22.756,22.862v5.011A16.629,16.629,0,0,0,169.511,97.2h33.667v2.386a3.575,3.575,0,0,1-3.566,3.583H166.637a5.53,5.53,0,0,0,5.518,5.543h27.482a9.1,9.1,0,0,0,9.083-9.126h0V94.58a2.924,2.924,0,0,0-2.917-2.931H169.517a11.1,11.1,0,0,1-11.072-11.124V75.514a17.278,17.278,0,0,1,17.232-17.269h27.557a13.7,13.7,0,0,1,13.673,13.736h5.523A19.234,19.234,0,0,0,203.247,52.7H203.24ZM146.855,110.07H102.5A12.811,12.811,0,0,1,89.721,97.23h0V77.957A12.811,12.811,0,0,1,102.5,65.116h44.353V59.573H102.508a18.348,18.348,0,0,0-18.3,18.39V97.2a18.348,18.348,0,0,0,18.3,18.39h44.353v-5.55ZM113.736,84.822H91.061v5.549h22.682V84.822h-0.007Zm-11.222-12.84h44.334v-5.55H102.52A11.492,11.492,0,0,0,91.055,77.951v5.562h22.681V77.938H96.579a5.955,5.955,0,0,1,5.941-5.963Zm0,31.218a5.955,5.955,0,0,1-5.935-5.975c0-.006,0-0.013,0-0.019h17.157v-5.55H91.061V97.2a11.493,11.493,0,0,0,11.466,11.519h44.334v-5.55H102.52Zm44.334,13.736H102.477A19.659,19.659,0,0,1,82.869,97.224c0-.006,0-0.013,0-0.019V77.944a19.66,19.66,0,0,1,19.608-19.7h44.378V52.7H102.477A25.2,25.2,0,0,0,77.339,77.951V97.2a25.2,25.2,0,0,0,25.138,25.255h44.378v-5.55Zm-119.7-1.309h19.2a18.347,18.347,0,0,0,18.3-18.39V52.7H59.128V97.236A12.8,12.8,0,0,1,46.353,110.07h-19.2A12.8,12.8,0,0,1,14.382,97.236V52.7H8.858V97.2A18.342,18.342,0,0,0,27.125,115.62h0.031ZM57.8,97.2V52.7H52.276V97.2a5.956,5.956,0,0,1-5.942,5.969H27.182A5.956,5.956,0,0,1,21.24,97.2V52.7H15.716V97.2a11.486,11.486,0,0,0,11.459,11.512H46.334A11.485,11.485,0,0,0,57.8,97.211V97.2Zm13.716,0V52.7H65.992V97.2A19.648,19.648,0,0,1,46.39,116.9H27.132A19.654,19.654,0,0,1,7.524,97.2V52.7H2V97.2a25.184,25.184,0,0,0,25.125,25.242H46.384A25.184,25.184,0,0,0,71.516,97.211V97.2Zm83.045-51.662A13.26,13.26,0,0,0,167.79,32.251h0V4H165.3V32.258a10.755,10.755,0,0,1-10.73,10.78h-2.494V44.29a2.187,2.187,0,0,1-2.182,2.192h0a2.187,2.187,0,0,1-2.182-2.192V43.037h-2.494a10.755,10.755,0,0,1-10.73-10.78V4h-2.494V32.251a13.261,13.261,0,0,0,13.218,13.291A4.9,4.9,0,0,0,154.561,45.543Zm7.307-36.9V32.283a7.3,7.3,0,0,1-7.282,7.3h-9.4a7.3,7.3,0,0,1-7.27-7.3V8.644H135.42V32.571a9.512,9.512,0,0,0,9.477,9.514h3.741v2.186a1.25,1.25,0,0,0,1.247,1.253h0a1.25,1.25,0,0,0,1.247-1.253V42.085h3.74a9.511,9.511,0,0,0,9.489-9.533V8.644h-2.493Zm-10.736,5.637h-2.494V38.659h2.494V14.281Zm-3.423,5.95h-2.494V36.154h0a3.831,3.831,0,0,1-3.822-3.84h0V13.273h-2.556V32.251a6.387,6.387,0,0,0,6.372,6.4H147.7V20.238Zm10.736-6.959V32.314a3.831,3.831,0,0,1-3.822,3.84h-0.062V20.238h-2.494V38.659h2.494a6.387,6.387,0,0,0,6.378-6.4V13.273h-2.494ZM128.251,44.735H2v0.808H135.42V44.735h-7.169Zm169.749,0H165.3v0.808H298V44.735ZM17,135.262H14.538v5.951a2.195,2.195,0,0,1-.424,1.5,1.727,1.727,0,0,1-1.34.47,1.681,1.681,0,0,1-1.347-.489,2.237,2.237,0,0,1-.412-1.478v-5.951H8.553v6.095a3.409,3.409,0,0,0,1.066,2.706,4.632,4.632,0,0,0,3.155.939,4.644,4.644,0,0,0,3.155-.939A3.416,3.416,0,0,0,17,141.351v-6.089Zm8.3,4.385,3.741-4.385H26.172l-3.392,4.322v-4.322H20.33v9.546h2.45v-3.132l0.567-.707,2.837,3.839H29.2Zm12.12,1.04a3.689,3.689,0,0,0,1.365-1.084,2.846,2.846,0,0,0,.486-1.722,2.389,2.389,0,0,0-.318-1.253,2.492,2.492,0,0,0-.792-0.852,3.124,3.124,0,0,0-1.135-.42,9.588,9.588,0,0,0-1.447-.094H31.446v9.546h2.438V141.3h1.16l2.556,3.507h2.993Zm-0.767-1.879a1.254,1.254,0,0,1-.374.438,1.4,1.4,0,0,1-.661.263,6.964,6.964,0,0,1-.979.056H33.877V137h1.658a1.863,1.863,0,0,1,.58.126,0.984,0.984,0,0,1,.505.4,1.218,1.218,0,0,1,.143.626,1.476,1.476,0,0,1-.112.676v-0.018Zm11.322-3.564H45.15l-3.5,9.564H44.14l0.661-1.929h3.51l0.636,1.929h2.531Zm-2.606,5.862,1.166-3.42,1.166,3.42H45.368Zm13.654,1.986H57.488v-6.157h1.559v-1.691H53.46v1.691h1.534v6.157H53.435v1.716H59v-1.691Zm11.671-7.848H68.448v5.462l-3.479-5.444H62.058v9.546H64.3V138.25l4.028,6.558h2.357v-9.546Zm8.616,7.86H77.75v-6.157h1.559v-1.691H73.748v1.691h1.559V143.1H73.748v1.7h5.561v-1.7Zm8.3-7.848H84.8l-3.523,9.552h2.494l0.661-1.929h3.51l0.661,1.929H91.13Zm-2.606,5.863,1.166-3.42,1.166,3.42H85.007Zm17.158-5.863H99.883v5.462l-3.46-5.462H93.5v9.552h2.244V138.25l4.04,6.558h2.357v-9.546Zm15.8,7.673h-4.433v-2.355h4.115v-1.842h-4.115V137.1h4.433v-1.848h-6.859v9.552h6.859v-1.879Zm10.174-2.756a3.46,3.46,0,0,0-1.608-.977c-0.34-.111-0.686-0.2-1.035-0.282l-1-.213a3.216,3.216,0,0,1-1.085-.369,0.669,0.669,0,0,1-.287-0.583,0.638,0.638,0,0,1,.181-0.445,1.11,1.11,0,0,1,.43-0.288,2.382,2.382,0,0,1,.586-0.156,4.493,4.493,0,0,1,.624-0.044,4.831,4.831,0,0,1,1.7.313,5.04,5.04,0,0,1,1.4.77h0.262v-2.173a8.586,8.586,0,0,0-1.584-.457,9.394,9.394,0,0,0-1.87-.182,5.174,5.174,0,0,0-3.055.839,2.56,2.56,0,0,0-1.191,2.174,2.6,2.6,0,0,0,.524,1.66,3.505,3.505,0,0,0,1.727,1.058,8.581,8.581,0,0,0,1.116.288q0.622,0.114,1.134.238a1.863,1.863,0,0,1,.773.351,0.689,0.689,0,0,1,.262.539,0.669,0.669,0,0,1-.181.513,1.476,1.476,0,0,1-.461.289,2.329,2.329,0,0,1-.623.125,5.761,5.761,0,0,1-.586.037,5.49,5.49,0,0,1-1.808-.325,5.656,5.656,0,0,1-1.7-.934h-0.269v2.287a10.508,10.508,0,0,0,1.64.526,8.953,8.953,0,0,0,2.058.206,5.308,5.308,0,0,0,3.229-.883,2.721,2.721,0,0,0,1.191-2.292,2.407,2.407,0,0,0-.468-1.585Zm10.774-3.338a2.513,2.513,0,0,0-.879-0.965,3.586,3.586,0,0,0-1.1-.47,6.328,6.328,0,0,0-1.527-.156H131.38v9.564h2.451v-3.132h1.521a4.565,4.565,0,0,0,1.739-.288,3.876,3.876,0,0,0,1.247-.852,2.782,2.782,0,0,0,.624-1.027,3.618,3.618,0,0,0,.224-1.253,3.071,3.071,0,0,0-.249-1.4ZM136.58,139a1.187,1.187,0,0,1-.343.489,1.444,1.444,0,0,1-.68.307,5.705,5.705,0,0,1-1.028.075h-0.7v-2.825h1.384a2.267,2.267,0,0,1,.748.169,1.178,1.178,0,0,1,.5.408,1.123,1.123,0,0,1,.218.695,2.02,2.02,0,0,1-.081.708Zm13.342-2.624a5.491,5.491,0,0,0-7.176,0,5.714,5.714,0,0,0,0,7.26,5.481,5.481,0,0,0,7.182,0,5.7,5.7,0,0,0,.019-7.235Zm-2.656,6.646a2.252,2.252,0,0,1-.9.181,2.286,2.286,0,0,1-.9-0.181,1.964,1.964,0,0,1-.749-0.558,2.884,2.884,0,0,1-.511-0.977,4.726,4.726,0,0,1-.193-1.453,4.85,4.85,0,0,1,.2-1.466,2.729,2.729,0,0,1,.518-0.989,2.045,2.045,0,0,1,.754-0.551,2.354,2.354,0,0,1,1.758,0,1.944,1.944,0,0,1,.749.557,2.852,2.852,0,0,1,.517.965,4.709,4.709,0,0,1,.2,1.459,5.019,5.019,0,0,1-.174,1.39,2.87,2.87,0,0,1-.53,1.028A1.973,1.973,0,0,1,147.266,143.017Zm12.881-2.305a3.691,3.691,0,0,0,1.39-1.109,2.84,2.84,0,0,0,.486-1.722,2.372,2.372,0,0,0-.318-1.253,2.494,2.494,0,0,0-.854-0.827,3.124,3.124,0,0,0-1.134-.42,9.463,9.463,0,0,0-1.447-.093h-4.108v9.52h2.456V141.3h1.135l2.581,3.5h2.992Zm-0.767-1.879a1.254,1.254,0,0,1-.374.438,1.4,1.4,0,0,1-.661.263,7.057,7.057,0,0,1-.985.057h-0.742v-2.568h1.658a1.83,1.83,0,0,1,.58.125,0.982,0.982,0,0,1,.5.4,1.259,1.259,0,0,1,.144.626,1.488,1.488,0,0,1-.131.651Zm13.448-3.571h-8.354v1.848h2.961v7.7h2.45v-7.7h2.943v-1.842Zm24.034,0h-6.777v9.546h2.438v-4.071h4.046v-1.848h-4.046V137.1h4.364v-1.848Zm9.633,7.667h-4.433v-2.355h4.115v-1.842h-4.115V137.1H206.5v-1.848h-6.858v9.552H206.5v-1.879Zm11.5-5.318a4.337,4.337,0,0,0-1.528-1.572,4.656,4.656,0,0,0-1.415-.551,8.912,8.912,0,0,0-2-.194h-3.442v9.514h3.348a10.106,10.106,0,0,0,1.964-.169,4.69,4.69,0,0,0,1.521-.589,4.42,4.42,0,0,0,1.528-1.616,4.694,4.694,0,0,0,.623-2.386,4.9,4.9,0,0,0-.6-2.412Zm-2.282,3.978a2.371,2.371,0,0,1-.985,1.027,2.8,2.8,0,0,1-.8.288,7.27,7.27,0,0,1-1.285.081h-0.623v-5.944h0.623a7.578,7.578,0,0,1,1.185.069,2.805,2.805,0,0,1,.767.251,2.387,2.387,0,0,1,1.078,1.046,3.507,3.507,0,0,1,.343,1.609,3.625,3.625,0,0,1-.3,1.6v-0.025Zm12.6,1.34h-4.433v-2.355H228v-1.842h-4.115V137.1h4.433v-1.848h-6.858v9.552h6.858v-1.879Zm9.071-2.242a3.7,3.7,0,0,0,1.391-1.109,2.854,2.854,0,0,0,.486-1.722,2.391,2.391,0,0,0-.318-1.253,2.512,2.512,0,0,0-.854-0.827,3.128,3.128,0,0,0-1.135-.42,9.588,9.588,0,0,0-1.446-.094h-4.078v9.546h2.438V141.3h1.135l2.581,3.5h2.992Zm-0.767-1.879a1.254,1.254,0,0,1-.374.438,1.4,1.4,0,0,1-.661.263,6.948,6.948,0,0,1-.978.056h-0.755V137h1.659a1.859,1.859,0,0,1,.579.126,0.973,0.973,0,0,1,.5.4,1.218,1.218,0,0,1,.15.626,1.474,1.474,0,0,1-.106.676Zm11.322-3.564h-2.793l-3.516,9.564h2.494l0.661-1.929h3.479l0.66,1.929h2.532Zm-2.606,5.862,1.166-3.42,1.166,3.42h-2.332Zm14.489-5.862h-8.36v1.847h2.968v7.717h2.45v-7.7h2.961v-1.848Zm7.794,7.848H266.06v-6.157h1.559v-1.691h-5.561v1.691h1.558v6.157h-1.558v1.716h5.561v-1.716Zm10.966-6.708a5.491,5.491,0,0,0-7.176,0,5.715,5.715,0,0,0,0,7.259,5.48,5.48,0,0,0,7.183,0,5.7,5.7,0,0,0,.006-7.247ZM275.9,143a2.269,2.269,0,0,1-.9.182,2.306,2.306,0,0,1-.9-0.182,1.961,1.961,0,0,1-.748-0.557,2.882,2.882,0,0,1-.512-0.978,4.757,4.757,0,0,1-.193-1.453,4.809,4.809,0,0,1,.2-1.465,2.708,2.708,0,0,1,.517-0.99,2.045,2.045,0,0,1,.754-0.551,2.357,2.357,0,0,1,1.759,0,1.948,1.948,0,0,1,.748.557,2.853,2.853,0,0,1,.517.971,4.71,4.71,0,0,1,.2,1.459,5.022,5.022,0,0,1-.175,1.391,2.849,2.849,0,0,1-.53,1.027,1.96,1.96,0,0,1-.723.608Zm15.537-7.754H289.19v5.462l-3.46-5.462h-2.924v9.564h2.245V138.25l4.04,6.558h2.356v-9.546Zm-109.318,4.942a3.462,3.462,0,0,0-1.614-.977,10.458,10.458,0,0,0-1.041-.282l-1.01-.213a3.232,3.232,0,0,1-1.085-.37,0.665,0.665,0,0,1-.287-0.582,0.626,0.626,0,0,1,.181-0.445,1.117,1.117,0,0,1,.43-0.294,2.341,2.341,0,0,1,.586-0.157,4.478,4.478,0,0,1,.623-0.044,4.827,4.827,0,0,1,1.7.313,5.06,5.06,0,0,1,1.41.777h0.261v-2.205a8.613,8.613,0,0,0-1.589-.457,9.4,9.4,0,0,0-1.871-.182,5.179,5.179,0,0,0-3.067.846,2.571,2.571,0,0,0-1.191,2.18,2.61,2.61,0,0,0,.53,1.666,3.519,3.519,0,0,0,1.733,1.064,8.512,8.512,0,0,0,1.122.289q0.624,0.112,1.135.238a1.872,1.872,0,0,1,.779.35,0.7,0.7,0,0,1,.268.545,0.68,0.68,0,0,1-.18.514,1.46,1.46,0,0,1-.462.288,2.371,2.371,0,0,1-.623.132c-0.245.025-.441,0.037-0.586,0.037a5.51,5.51,0,0,1-1.815-.325,5.7,5.7,0,0,1-1.7-.94h-0.268v2.292a10.5,10.5,0,0,0,1.646.533,9.062,9.062,0,0,0,2.064.207,5.327,5.327,0,0,0,3.242-.884,2.729,2.729,0,0,0,1.191-2.3A2.414,2.414,0,0,0,182.117,140.186Z"/>
</svg>
